<svg viewBox="0 0 780 300" xmlns="http://www.w3.org/2000/svg" font-family="'Malgun Gothic','Apple SD Gothic Neo',sans-serif">
  <rect width="780" height="300" fill="#0D1117" rx="8"/>
  <text x="390" y="28" fill="#90CAF9" font-size="13" font-weight="bold" text-anchor="middle">엑셀 출력 파일 구조 — 미체결_DB배정_2026-04-08.xlsx</text>

  <!-- File icon -->
  <rect x="30" y="50" width="60" height="75" rx="3" fill="#1E8449" stroke="#27AE60" stroke-width="1.5"/>
  <polygon points="72,50 90,68 72,68" fill="#145A32"/>
  <rect x="72" y="68" width="18" height="57" rx="0" fill="#145A32"/>
  <text x="60" y="100" fill="white" font-size="10" font-weight="bold" text-anchor="middle">xlsx</text>
  <text x="60" y="115" fill="#A9DFBF" font-size="8" text-anchor="middle">미체결_DB배정</text>
  <text x="60" y="127" fill="#A9DFBF" font-size="8" text-anchor="middle">_2026-04-08</text>

  <!-- Arrow -->
  <line x1="95" y1="87" x2="130" y2="87" stroke="#27AE60" stroke-width="2"/>
  <polygon points="130,83 138,87 130,91" fill="#27AE60"/>

  <!-- Sheet tabs area -->
  <rect x="140" y="55" width="600" height="200" rx="6" fill="#1A2634" stroke="#2C3E50" stroke-width="1"/>

  <!-- Tab: 전체 -->
  <rect x="150" y="55" width="80" height="24" rx="4" fill="#1565C0" stroke="#4FC3F7" stroke-width="1.5"/>
  <text x="190" y="71" fill="white" font-size="10" font-weight="bold" text-anchor="middle">전체</text>
  <!-- Tab: 가미숙 -->
  <rect x="234" y="57" width="70" height="22" rx="4" fill="#263238" stroke="#546E7A" stroke-width="1"/>
  <text x="269" y="72" fill="#90A4AE" font-size="10" text-anchor="middle">가미숙</text>
  <!-- Tab: 박미아 -->
  <rect x="308" y="57" width="70" height="22" rx="4" fill="#263238" stroke="#546E7A" stroke-width="1"/>
  <text x="343" y="72" fill="#90A4AE" font-size="10" text-anchor="middle">박미아</text>
  <!-- Tab: ...더보기 -->
  <text x="395" y="72" fill="#546E7A" font-size="10">···</text>

  <!-- Sheet content preview -->
  <!-- Header row -->
  <rect x="150" y="80" width="580" height="22" fill="#0D47A1"/>
  <text x="165" y="95" fill="white" font-size="8" font-weight="bold">휴대전화</text>
  <text x="225" y="95" fill="white" font-size="8" font-weight="bold">ID</text>
  <text x="290" y="95" fill="white" font-size="8" font-weight="bold">성명</text>
  <text x="340" y="95" fill="white" font-size="8" font-weight="bold">등록일</text>
  <text x="400" y="95" fill="white" font-size="8" font-weight="bold">상태</text>
  <text x="445" y="95" fill="white" font-size="8" font-weight="bold">사번</text>
  <text x="505" y="95" fill="white" font-size="8" font-weight="bold">담당자명</text>
  <text x="575" y="95" fill="#FFD700" font-size="8" font-weight="bold">신규배정일</text>
  <text x="650" y="95" fill="#FFD700" font-size="8" font-weight="bold">신규담당자</text>
  <!-- Data rows -->
  <rect x="150" y="102" width="580" height="18" fill="#EBF5FB"/>
  <text x="165" y="115" fill="#1a1a1a" font-size="8">01073037...</text>
  <text x="225" y="115" fill="#1a1a1a" font-size="8">20250727...</text>
  <text x="290" y="115" fill="#1a1a1a" font-size="8">배진영</text>
  <text x="340" y="115" fill="#1a1a1a" font-size="8">2025-07-25</text>
  <text x="400" y="115" fill="#C0392B" font-size="8">취소</text>
  <text x="445" y="115" fill="#1a1a1a" font-size="8">20240073</text>
  <text x="505" y="115" fill="#1a1a1a" font-size="8">이소영</text>
  <text x="575" y="115" fill="#1E8449" font-size="8" font-weight="bold">2026-04-08</text>
  <text x="650" y="115" fill="#1E8449" font-size="8" font-weight="bold">가미숙</text>
  <rect x="150" y="120" width="580" height="18" fill="white"/>
  <text x="165" y="133" fill="#1a1a1a" font-size="8">01073130...</text>
  <text x="225" y="133" fill="#1a1a1a" font-size="8">20250727...</text>
  <text x="290" y="133" fill="#1a1a1a" font-size="8">박정숙</text>
  <text x="340" y="133" fill="#1a1a1a" font-size="8">2025-07-25</text>
  <text x="400" y="133" fill="#E67E22" font-size="8">부재</text>
  <text x="445" y="133" fill="#1a1a1a" font-size="8">20250025</text>
  <text x="505" y="133" fill="#1a1a1a" font-size="8">김덕희</text>
  <text x="575" y="133" fill="#1E8449" font-size="8" font-weight="bold">2026-04-08</text>
  <text x="650" y="133" fill="#1E8449" font-size="8" font-weight="bold">박미아</text>
  <rect x="150" y="138" width="580" height="18" fill="#EBF5FB"/>
  <rect x="150" y="156" width="580" height="18" fill="white"/>
  <rect x="150" y="174" width="580" height="18" fill="#EBF5FB"/>
  <text x="430" y="198" fill="#546E7A" font-size="9" text-anchor="middle">↕ 모든 신규 배정 건 포함 (배정 건수만큼 행 존재)</text>

  <!-- Feature badges -->
  <rect x="150" y="210" width="110" height="28" rx="4" fill="#1A3A2A" stroke="#2E7D32" stroke-width="1"/>
  <text x="205" y="225" fill="#90EE90" font-size="8" text-anchor="middle">🔒 1행 고정 (Freeze)</text>
  <rect x="268" y="210" width="110" height="28" rx="4" fill="#1A2040" stroke="#1565C0" stroke-width="1"/>
  <text x="323" y="225" fill="#90CAF9" font-size="8" text-anchor="middle">🔽 자동 필터 적용</text>
  <rect x="386" y="210" width="140" height="28" rx="4" fill="#2A1A00" stroke="#E65100" stroke-width="1"/>
  <text x="456" y="225" fill="#FFCC80" font-size="8" text-anchor="middle">📐 열 너비 자동 조정</text>
  <rect x="534" y="210" width="140" height="28" rx="4" fill="#1A1040" stroke="#7B1FA2" stroke-width="1"/>
  <text x="604" y="225" fill="#CE93D8" font-size="8" text-anchor="middle">👤 담당자별 시트 분리</text>

  <!-- Save path -->
  <text x="390" y="270" fill="#78909C" font-size="9" text-anchor="middle">저장 경로 :  C:\Users\{사용자명}\Downloads\미체결_DB배정_{작업일}.xlsx</text>
</svg>
